PathFileType	4	(X/Y/Z)	4_coords_data.trc
DataRate	CameraRate	NumFrames	NumMarkers	Units	OrigDataRate	OrigDataStartFrame	OrigNumFrames
30.0	30.0	8	21	m	30.0	41	51
Frame#	Time	THUMB_TIP	THUMB_IP	THUMB_MCP	THUMB_CMC	INDEX_TIP	INDEX_DIP	INDEX_PIP	INDEX_MCP	MIDDLE_TIP	MIDDLE_DIP	MIDDLE_PIP	MIDDLE_MCP	RING_TIP	RING_DIP	RING_PIP	RING_MCP	PINKY_TIP	PINKY_DIP	PINKY_PIP	PINKY_MCP	WRIST
X1	Y1	Z1	X2	Y2	Z2	X3	Y3	Z3	X4	Y4	Z4	X5	Y5	Z5	X6	Y6	Z6	X7	Y7	Z7	X8	Y8	Z8	X9	Y9	Z9	X10	Y10	Z10	X11	Y11	Z11	X12	Y12	Z12	X13	Y13	Z13	X14	Y14	Z14	X15	Y15	Z15	X16	Y16	Z16	X17	Y17	Z17	X18	Y18	Z18	X19	Y19	Z19	X20	Y20	Z20	X21	Y21	Z21
40	1.3333333333333333	-0.018168100357055662	-0.09378009796142578	1.0373699951171875	-0.03419179916381836	-0.07957599639892578	1.058199951171875	-0.05388610076904297	-0.07387729644775391	1.08543994140625	-0.068068603515625	-0.04318050003051758	1.1008699951171874	-0.026188600540161134	-0.06956490325927735	0.9716539916992187	-0.044490100860595704	-0.06965560150146484	0.9874669799804687	-0.06286100006103515	-0.06894259643554687	1.0059500122070313	-0.08603500366210938	-0.06504100036621094	1.041719970703125	-0.016958099365234375	-0.04129660034179688	0.9599630126953125	-0.035493099212646484	-0.04139770126342773	0.9784249877929687	-0.05843439865112305	-0.04134450149536133	1.000239990234375	-0.08787359619140625	-0.03962030029296875	1.035050048828125	-0.01316759967803955	-0.012219499588012696	0.967364990234375	-0.03421950149536133	-0.011721599578857421	0.9807849731445313	-0.058801498413085934	-0.012535300254821777	0.9983319702148438	-0.08172039794921875	-0.01639500045776367	1.0361400146484374	-0.01799290084838867	0.009640210151672364	0.9984509887695312	-0.03684339904785156	0.012937800407409668	1.0051799926757812	-0.05621030044555664	0.013538000106811523	1.014489990234375	-0.07456220245361328	0.006167610168457031	1.041489990234375	-0.100177001953125	-0.016864500045776366	1.121199951171875
41	1.3666666666666667	-0.019854999542236327	-0.10052999877929687	1.04218994140625	-0.035222000122070315	-0.08416280364990235	1.0615899658203125	-0.05530659866333008	-0.0763125991821289	1.088050048828125	-0.0690198974609375	-0.04460469818115234	1.102699951171875	-0.02723780059814453	-0.07473560333251954	0.9712589721679687	-0.04483029937744141	-0.073722900390625	0.9878189697265625	-0.06230339813232422	-0.07189689636230469	1.00702001953125	-0.08421720123291015	-0.06657839965820313	1.0429599609375	-0.019994400024414063	-0.04513240051269531	0.9561749877929687	-0.036744598388671876	-0.044799400329589845	0.9766530151367188	-0.05769979858398438	-0.04408169937133789	1.0002000122070311	-0.08522100067138672	-0.041354198455810544	1.035719970703125	-0.01607789993286133	-0.01490060043334961	0.9623870239257812	-0.03568239974975586	-0.014406399726867676	0.978406982421875	-0.058251499176025394	-0.015102100372314454	0.998281005859375	-0.07869539642333985	-0.0183484992980957	1.03652001953125	-0.01867070007324219	0.010519100189208984	0.9941090087890625	-0.03702280044555664	0.012604999542236327	1.0029199829101563	-0.05521250152587891	0.012102999687194825	1.0143099975585939	-0.07131079864501953	0.004137909889221191	1.0418299560546875	-0.10037699890136718	-0.017099199295043947	1.1219000244140624
42	1.4	-0.021475500106811523	-0.10591400146484375	1.0463299560546875	-0.036286399841308596	-0.08791929626464844	1.0646600341796875	-0.05635309982299805	-0.07837640380859374	1.090260009765625	-0.06938369750976563	-0.04586930084228515	1.104030029296875	-0.026841699600219728	-0.07858760070800781	0.9723359985351563	-0.04421160125732422	-0.07686519622802734	0.9891309814453125	-0.061527099609375	-0.07436009979248047	1.0083699951171874	-0.0831759033203125	-0.06798930358886719	1.0439000244140626	-0.021343599319458006	-0.04803799819946289	0.95472900390625	-0.037264499664306644	-0.0473666000366211	0.9759520263671875	-0.05722439956665039	-0.04624829864501953	1.0003800048828124	-0.08349669647216797	-0.04291379928588867	1.03627001953125	-0.01792919921875	-0.016585500717163085	0.9598499755859375	-0.036434898376464846	-0.016146299362182617	0.977344970703125	-0.057743400573730466	-0.016808500289916994	0.998405029296875	-0.076802001953125	-0.019921699523925782	1.0367900390625	-0.019522600173950196	0.0109483003616333	0.9916110229492188	-0.0372957992553711	0.01219789981842041	1.0017999877929689	-0.05467430114746094	0.011063599586486816	1.014260009765625	-0.06940080261230469	0.002564429998397827	1.041969970703125	-0.10059700012207032	-0.01753860092163086	1.1225400390625
43	1.4333333333333333	-0.02507029914855957	-0.11173699951171875	1.0499000244140626	-0.03855270004272461	-0.09200090026855469	1.0671199951171875	-0.05869549942016602	-0.08066220092773438	1.09197998046875	-0.07067230224609375	-0.0469015007019043	1.1053299560546874	-0.026308900833129884	-0.08192870330810546	0.9736409912109375	-0.04364929962158203	-0.07955909729003906	0.9902150268554688	-0.06090679931640625	-0.07632890319824219	1.0094099731445312	-0.0824697036743164	-0.06898059844970703	1.04468994140625	-0.020704399108886717	-0.050617698669433595	0.954989013671875	-0.036534599304199215	-0.049540500640869144	0.97639697265625	-0.05622850036621094	-0.04796649932861328	1.0008900146484374	-0.08211930084228515	-0.04402339935302734	1.0368699951171876	-0.01792340087890625	-0.018416500091552733	0.959156005859375	-0.03595449829101562	-0.017804899215698243	0.9771400146484375	-0.05669559860229492	-0.018226999282836914	0.9986820068359376	-0.07514900207519531	-0.021058000564575196	1.037050048828125	-0.01935260009765625	0.011157199859619141	0.9906279907226563	-0.036757198333740235	0.011987899780273438	1.001489990234375	-0.05368199920654297	0.010427000045776368	1.0144400024414062	-0.06774320220947265	0.001339100003242492	1.0421500244140625	-0.10113099670410156	-0.01762579917907715	1.1231700439453125
44	1.4666666666666666	-0.03016309928894043	-0.11723300170898437	1.052719970703125	-0.04196870040893555	-0.09582530212402343	1.0688900146484375	-0.061506099700927734	-0.08262010192871094	1.093050048828125	-0.07218049621582032	-0.04802389907836914	1.10631005859375	-0.026700599670410156	-0.08474320220947265	0.9739619750976563	-0.043723899841308596	-0.08171399688720703	0.9908109741210938	-0.06067879867553711	-0.07774210357666016	1.0100700073242188	-0.08189929962158203	-0.06946980285644531	1.04525	-0.021208499908447264	-0.05264059829711914	0.9542969970703125	-0.03644549942016601	-0.05120149993896484	0.9762750244140626	-0.05545719909667969	-0.0492411003112793	1.001239990234375	-0.08083609771728516	-0.0446078987121582	1.03727001953125	-0.018812700271606444	-0.019240699768066406	0.9575859985351562	-0.035944698333740234	-0.01872800064086914	0.976822998046875	-0.055784801483154296	-0.019125600814819337	0.9991669921875	-0.0735509033203125	-0.02178499984741211	1.0374100341796875	-0.019328300476074218	0.012070099830627441	0.9894169921875	-0.036240798950195316	0.012168499946594238	1.00147998046875	-0.052448799133300784	0.010016599655151366	1.0151199951171874	-0.06606169891357422	0.00045344400405883704	1.0426400146484376	-0.1015	-0.017613100051879882	1.123550048828125
45	1.5	-0.03406719970703125	-0.12080100250244141	1.0541099853515625	-0.04426979827880859	-0.09831439971923828	1.0698199462890625	-0.06345080184936523	-0.08393170166015625	1.09356005859375	-0.07318550109863281	-0.0486510009765625	1.1066500244140625	-0.026985300064086913	-0.08579389953613281	0.9740399780273438	-0.04388359832763672	-0.08244560241699218	0.991072021484375	-0.06066619873046875	-0.07821399688720704	1.0103900146484375	-0.0817406997680664	-0.06972709655761719	1.045510009765625	-0.022686100006103514	-0.05267319869995117	0.9530009765625	-0.037175899505615236	-0.051271400451660155	0.975697021484375	-0.05542620086669922	-0.0493745002746582	1.001239990234375	-0.08021759796142579	-0.044877300262451174	1.037780029296875	-0.020063899993896486	-0.019087499618530273	0.9562000122070312	-0.03616350173950195	-0.018801799774169924	0.9765050048828126	-0.055018299102783205	-0.01945170021057129	0.9996729736328125	-0.07271050262451172	-0.022099300384521483	1.037739990234375	-0.019573600769042968	0.013113200187683105	0.9886640014648438	-0.03603129959106445	0.012562600135803223	1.0015	-0.051775398254394533	0.009935150146484375	1.0156699829101563	-0.06527369689941406	9.4946697354316e-05	1.0430799560546875	-0.10181700134277344	-0.017779699325561525	1.12352001953125
46	1.5333333333333334	-0.038111198425292966	-0.12343900299072266	1.055260009765625	-0.04682109832763672	-0.09999880218505859	1.0705999755859374	-0.0655416030883789	-0.08465509796142578	1.0938900146484376	-0.07436530303955079	-0.048925800323486326	1.1071400146484376	-0.026573600769042968	-0.08645590209960938	0.9746329956054688	-0.043486099243164066	-0.08282109832763672	0.991468017578125	-0.06028279876708984	-0.07837000274658203	1.0107100219726564	-0.08153060150146485	-0.06961019897460938	1.0456400146484375	-0.022422500610351562	-0.052758499145507814	0.9530330200195313	-0.036728298187255856	-0.05131829833984375	0.9758410034179688	-0.05480709838867188	-0.0493932991027832	1.0015599975585938	-0.0794269027709961	-0.04476779937744141	1.0377099609375	-0.019862199783325197	-0.01908060073852539	0.955718994140625	-0.035546798706054684	-0.018929399490356446	0.9765570068359375	-0.054060699462890625	-0.019589799880981446	1.00022998046875	-0.07198370361328126	-0.022072399139404297	1.0380899658203124	-0.019191600799560546	0.013854599952697754	0.9885089721679687	-0.035459300994873044	0.01292710018157959	1.0018499755859376	-0.05095349884033203	0.010025600433349609	1.0161900024414063	-0.06454329681396484	2.2344199940562003e-05	1.0434200439453125	-0.10244699859619141	-0.017599899291992186	1.123989990234375
47	1.5666666666666667	-0.04101340103149414	-0.12497899627685546	1.0560699462890626	-0.048907798767089845	-0.10106800079345703	1.071239990234375	-0.06720030212402343	-0.08511849975585938	1.0941600341796875	-0.07522350311279297	-0.04907320022583008	1.107469970703125	-0.026671199798583983	-0.0868781967163086	0.9748389892578125	-0.043399600982666015	-0.08303019714355468	0.9918499755859375	-0.05998849868774414	-0.07837779998779297	1.0111699829101561	-0.08134559631347656	-0.06946739959716797	1.045800048828125	-0.02172920036315918	-0.05284939956665039	0.9535789794921875	-0.03588650131225586	-0.05143259811401367	0.9764199829101563	-0.05383119964599609	-0.049434101104736325	1.0021199951171875	-0.07875779724121093	-0.044652099609375	1.0379100341796874	-0.019087499618530273	-0.019025999069213866	0.9559630126953125	-0.03439849853515625	-0.018989200592041015	0.9771220092773437	-0.05267959976196289	-0.01967700004577637	1.001010009765625	-0.07115049743652344	-0.0220314998626709	1.038449951171875	-0.018177200317382812	0.014472700119018555	0.9890120239257812	-0.03429610061645508	0.013139100074768066	1.0025499877929687	-0.04971179962158203	0.010060400009155273	1.01702001953125	-0.06371369934082032	-6.295970082283e-05	1.04397998046875	-0.10299600219726562	-0.017304399490356445	1.124010009765625
